<svg id="visual" viewBox="0 0 1920 1080" width="1920" height="1080" xmlns="http://www.w3.org/2000/svg" xmlns:xlink="http://www.w3.org/1999/xlink" version="1.1"><rect x="0" y="0" width="1920" height="1080" fill="#000000"></rect><defs><linearGradient id="grad1_0" x1="43.8%" y1="0%" x2="100%" y2="100%"><stop offset="14.444444444444446%" stop-color="#ff7300" stop-opacity="1"></stop><stop offset="85.55555555555554%" stop-color="#ff7300" stop-opacity="1"></stop></linearGradient></defs><defs><linearGradient id="grad1_1" x1="43.8%" y1="0%" x2="100%" y2="100%"><stop offset="14.444444444444446%" stop-color="#ff7300" stop-opacity="1"></stop><stop offset="85.55555555555554%" stop-color="#b93900" stop-opacity="1"></stop></linearGradient></defs><defs><linearGradient id="grad1_2" x1="43.8%" y1="0%" x2="100%" y2="100%"><stop offset="14.444444444444446%" stop-color="#790000" stop-opacity="1"></stop><stop offset="85.55555555555554%" stop-color="#b93900" stop-opacity="1"></stop></linearGradient></defs><defs><linearGradient id="grad1_3" x1="43.8%" y1="0%" x2="100%" y2="100%"><stop offset="14.444444444444446%" stop-color="#790000" stop-opacity="1"></stop><stop offset="85.55555555555554%" stop-color="#000000" stop-opacity="1"></stop></linearGradient></defs><defs><linearGradient id="grad2_0" x1="0%" y1="0%" x2="56.3%" y2="100%"><stop offset="14.444444444444446%" stop-color="#ff7300" stop-opacity="1"></stop><stop offset="85.55555555555554%" stop-color="#ff7300" stop-opacity="1"></stop></linearGradient></defs><defs><linearGradient id="grad2_1" x1="0%" y1="0%" x2="56.3%" y2="100%"><stop offset="14.444444444444446%" stop-color="#b93900" stop-opacity="1"></stop><stop offset="85.55555555555554%" stop-color="#ff7300" stop-opacity="1"></stop></linearGradient></defs><defs><linearGradient id="grad2_2" x1="0%" y1="0%" x2="56.3%" y2="100%"><stop offset="14.444444444444446%" stop-color="#b93900" stop-opacity="1"></stop><stop offset="85.55555555555554%" stop-color="#790000" stop-opacity="1"></stop></linearGradient></defs><defs><linearGradient id="grad2_3" x1="0%" y1="0%" x2="56.3%" y2="100%"><stop offset="14.444444444444446%" stop-color="#000000" stop-opacity="1"></stop><stop offset="85.55555555555554%" stop-color="#790000" stop-opacity="1"></stop></linearGradient></defs><g transform="translate(1920, 0)"><path d="M0 756C-61.4 685.5 -122.9 615.1 -191.9 590.6C-260.9 566.1 -337.6 587.6 -417.3 574.4C-497.1 561.2 -580 513.4 -611.6 444.4C-643.2 375.4 -623.6 285.2 -639.1 207.7C-654.6 130.1 -705.3 65 -756 0L0 0Z" fill="#5d0000"></path><path d="M0 567C-46.1 514.2 -92.2 461.3 -143.9 443C-195.7 424.6 -253.2 440.7 -313 430.8C-372.8 420.9 -435 385 -458.7 333.3C-482.4 281.5 -467.7 213.9 -479.3 155.7C-491 97.6 -529 48.8 -567 0L0 0Z" fill="#981800"></path><path d="M0 378C-30.7 342.8 -61.4 307.5 -95.9 295.3C-130.5 283.1 -168.8 293.8 -208.7 287.2C-248.5 280.6 -290 256.7 -305.8 222.2C-321.6 187.7 -311.8 142.6 -319.6 103.8C-327.3 65 -352.7 32.5 -378 0L0 0Z" fill="#dc5600"></path><path d="M0 189C-15.4 171.4 -30.7 153.8 -48 147.7C-65.2 141.5 -84.4 146.9 -104.3 143.6C-124.3 140.3 -145 128.3 -152.9 111.1C-160.8 93.8 -155.9 71.3 -159.8 51.9C-163.7 32.5 -176.3 16.3 -189 0L0 0Z" fill="#ff7300"></path></g><g transform="translate(0, 1080)"><path d="M0 -756C71.7 -725.9 143.4 -695.7 217.5 -669.5C291.7 -643.4 368.2 -621.2 415 -571.2C461.8 -521.2 478.9 -443.4 532.3 -386.8C585.8 -330.1 675.7 -294.6 719 -233.6C762.3 -172.7 759.2 -86.3 756 0L0 0Z" fill="#5d0000"></path><path d="M0 -567C53.8 -544.4 107.6 -521.8 163.2 -502.2C218.7 -482.5 276.1 -465.9 311.2 -428.4C346.3 -390.9 359.1 -332.6 399.2 -290.1C439.4 -247.6 506.7 -220.9 539.2 -175.2C571.8 -129.5 569.4 -64.8 567 0L0 0Z" fill="#981800"></path><path d="M0 -378C35.9 -362.9 71.7 -347.9 108.8 -334.8C145.8 -321.7 184.1 -310.6 207.5 -285.6C230.9 -260.6 239.4 -221.7 266.2 -193.4C292.9 -165.1 337.8 -147.3 359.5 -116.8C381.2 -86.3 379.6 -43.2 378 0L0 0Z" fill="#dc5600"></path><path d="M0 -189C17.9 -181.5 35.9 -173.9 54.4 -167.4C72.9 -160.8 92 -155.3 103.7 -142.8C115.4 -130.3 119.7 -110.9 133.1 -96.7C146.5 -82.5 168.9 -73.6 179.7 -58.4C190.6 -43.2 189.8 -21.6 189 0L0 0Z" fill="#ff7300"></path></g></svg>